:SAMPLES-PER-SECOND 24
:FULLY-SPECIFIED
:DEGREES
593
root  0.868473 38.0169 -35.1066 -1.04961 1.6548 -5.0313
RightUpLeg  -16.2988 -15.0435 1.9436
RightLeg  37.1803 6.41277 4.96384
RightFoot  -13.327 -0.0496899 2.31617
RightToes  -1.46215e-006 3.27826e-006 1.63871e-007
Spine  5.48311 5.62053 5.20123
Spine1  13.2793 9.18167 -9.96149
HEad  -31.2192 -56.4338 40.4837
LeftShoulder1  2.70198 -4.94036 -25.863
LeftArm  22.3097 32.564 -29.3367
LeftForeArm  -7.92701 -75.4589 -57.8765
LeftHand  0.0233981 3.61392 -2.96005
RightShoulder  0.0160654 -5.99198 -10.2421
RightArm  90.2229 82.3191 117.656
RightForeArm  159.591 77.2734 135.651
RightHand  0.0156268 -1.63207 0.787139
LeftUpLeg  -20.0724 5.69854 -1.8308
LeftLeg  36.5238 1.1959 1.33581
LeftFoot  -11.8351 0.0811053 2.89674
LeftToes  1.24762e-006 1.46925e-008 1.29056e-009
594
root  0.250381 37.9375 -35.024 -0.349731 0.280029 -4.83156
RightUpLeg  -19.0346 -18.3337 1.934
RightLeg  41.3011 7.13511 6.37236
RightFoot  -13.4158 0.00327258 5.27079
RightToes  -1.46215e-006 3.27826e-006 1.63871e-007
Spine  5.50978 5.97337 2.50255
Spine1  12.3923 9.10542 -9.09291
HEad  -30.5878 -56.0118 40.5947
LeftShoulder1  2.65485 -4.95636 -25.2196
LeftArm  21.5502 31.8556 -29.1875
LeftForeArm  -5.1087 -75.7948 -60.0959
LeftHand  0.0634634 2.9435 -3.89855
RightShoulder  0.0135677 -5.98113 -10.0796
RightArm  83.7612 82.9192 110.821
RightForeArm  160.876 76.9399 137.084
RightHand  0.00705723 -2.57717 0.800371
LeftUpLeg  -21.2357 9.04217 -0.702108
LeftLeg  38.1311 -0.377206 0.0659372
LeftFoot  -13.2535 0.082072 0.20491
LeftToes  1.24762e-006 1.46925e-008 1.29056e-009
595
root  -0.263814 37.7996 -34.9917 0.514191 -0.107727 -4.7193
RightUpLeg  -21.8071 -20.7177 0.256916
RightLeg  44.825 2.83625 2.68046
RightFoot  -12.9061 -0.0176797 5.08014
RightToes  -1.46215e-006 3.27826e-006 1.63871e-007
Spine  5.45382 5.80897 1.60291
Spine1  11.8193 8.97588 -9.5206
HEad  -31.5926 -55.3386 41.1538
LeftShoulder1  2.62183 -4.99995 -24.6451
LeftArm  20.5689 30.701 -29.3697
LeftForeArm  -3.87345 -75.9331 -61.0919
LeftHand  0.0813926 2.60671 -4.12876
RightShoulder  0.0107582 -5.99272 -9.99255
RightArm  78.7662 83.5428 105.277
RightForeArm  162.153 76.3382 139.266
RightHand  -0.00201726 -3.19148 0.609282
LeftUpLeg  -22.9317 11.9743 -0.136014
LeftLeg  39.5136 -2.35014 -1.67825
LeftFoot  -13.7504 0.0836779 0.0486992
LeftToes  1.24762e-006 1.46925e-008 1.29056e-009
596
root  -0.704314 37.6092 -34.9384 0.974014 -0.290802 -5.43152
RightUpLeg  -22.0579 -19.8441 -3.36062
RightLeg  45.2131 0.285855 0.000661114
RightFoot  -12.676 -0.0527623 2.84675
RightToes  -1.46215e-006 3.27826e-006 1.63871e-007
Spine  5.64585 5.60051 2.1806
Spine1  11.4351 8.82981 -9.96051
HEad  -32.7162 -54.7614 41.4701
LeftShoulder1  2.6292 -5.00253 -24.726
LeftArm  19.9162 30.2705 -29.7666
LeftForeArm  -1.09537 -76.2333 -63.4609
LeftHand  0.084715 2.66863 -3.96313
RightShoulder  0.0075822 -5.95242 -9.86366
RightArm  70.0824 84.0443 96.0633
RightForeArm  163.735 75.7343 141.315
RightHand  -0.00435107 -3.07386 0.830803
LeftUpLeg  -24.2465 12.9583 1.20856
LeftLeg  41.2786 -2.64731 -2.07924
LeftFoot  -14.0907 0.113273 1.19548
LeftToes  1.24762e-006 1.46925e-008 1.29056e-009
597
root  -1.19282 37.3888 -34.8814 1.23805 -0.420212 -6.30595
RightUpLeg  -20.1167 -17.9677 -8.17864
RightLeg  41.7101 0.0450071 -0.237045
RightFoot  -11.7089 -0.0736035 2.54187
RightToes  -1.46215e-006 3.27826e-006 1.63871e-007
Spine  5.76951 5.5715 2.45942
Spine1  11.1751 8.64839 -9.71083
HEad  -33.2767 -54.4637 41.8258
LeftShoulder1  2.63892 -5.00833 -24.8237
LeftArm  19.78 30.2671 -30.329
LeftForeArm  2.55422 -76.6092 -66.9743
LeftHand  0.0960364 2.56112 -4.38045
RightShoulder  -0.00118212 -5.85304 -9.45295
RightArm  57.7267 84.2341 83.6839
RightForeArm  165.139 75.134 143.147
RightHand  -0.0226822 -4.35173 0.249293
LeftUpLeg  -25.6563 13.7513 2.92451
LeftLeg  43.7724 -2.90774 -2.5589
LeftFoot  -15.0654 0.127546 1.14365
LeftToes  1.24762e-006 1.46925e-008 1.29056e-009
598
root  -1.74078 37.1732 -34.7995 1.34813 -0.756088 -6.75591
RightUpLeg  -17.1607 -17.9275 -13.106
RightLeg  35.3899 -1.89994 -1.66568
RightFoot  -6.61999 -0.218176 4.05988
RightToes  -1.46215e-006 3.27826e-006 1.63871e-007
Spine  5.52755 5.71786 2.34762
Spine1  11.246 8.66152 -9.37791
HEad  -32.7105 -54.5789 41.6754
LeftShoulder1  2.61264 -5.03172 -24.412
LeftArm  20.1263 30.0947 -30.6597
LeftForeArm  7.50009 -77.0219 -71.886
LeftHand  0.0953095 2.70196 -4.91485
RightShoulder  -0.00845543 -5.81978 -9.09912
RightArm  45.4508 84.307 71.4046
RightForeArm  165.579 74.5509 144.631
RightHand  -0.029436 -4.78405 -0.621327
LeftUpLeg  -26.6162 15.0731 4.33407
LeftLeg  45.7741 -3.54677 -3.45939
LeftFoot  -15.8559 0.145855 1.27693
LeftToes  1.24762e-006 1.46925e-008 1.29056e-009
599
root  -2.29282 36.979 -34.6768 1.13387 -1.59097 -6.81889
RightUpLeg  -13.5081 -19.2883 -17.5628
RightLeg  27.6816 -4.28513 -2.64485
RightFoot  -0.246964 -0.450609 4.6412
RightToes  -1.46215e-006 3.27826e-006 1.63871e-007
Spine  5.25427 5.95818 2.67173
Spine1  11.2768 8.99532 -9.64995
HEad  -31.37 -54.9004 40.7734
LeftShoulder1  2.56784 -4.99053 -24.0138
LeftArm  19.9041 29.2952 -30.4846
LeftForeArm  13.9505 -77.394 -78.2846
LeftHand  0.0624168 3.48012 -5.20526
RightShoulder  -0.0159028 -5.69652 -8.71932
RightArm  27.367 83.9213 52.6383
RightForeArm  166.8 73.938 146.197
RightHand  -0.0202728 -3.79659 0.0554414
LeftUpLeg  -26.5725 16.6068 5.54213
LeftLeg  47.0878 -3.84041 -3.97177
LeftFoot  -16.7242 0.160254 1.26877
LeftToes  1.24762e-006 1.46925e-008 1.29056e-009
600
root  -2.877 36.7822 -34.5964 0.862823 -2.82642 -6.54868
RightUpLeg  -10.3893 -21.1991 -21.0737
RightLeg  20.8519 -4.20799 -1.97895
RightFoot  4.1556 -0.67215 5.14511
RightToes  -1.46215e-006 3.27826e-006 1.63871e-007
Spine  5.20937 6.01189 3.35401
Spine1  10.8627 9.32918 -10.6233
HEad  -30.2148 -54.6252 39.8791
LeftShoulder1  2.52642 -4.89192 -23.868
LeftArm  18.0215 27.1307 -30.4393
LeftForeArm  20.3121 -77.5979 -85.5454
LeftHand  0.0295654 4.00328 -4.63694
RightShoulder  -0.0184888 -5.29549 -7.89626
RightArm  11.491 82.7622 35.9749
RightForeArm  168.66 72.7963 148.747
RightHand  -0.0289175 -5.31578 -0.4586
LeftUpLeg  -26.3789 17.8922 6.55094
LeftLeg  48.3175 -3.75595 -4.05871
LeftFoot  -17.8207 0.129098 0.391914
LeftToes  1.24762e-006 1.46925e-008 1.29056e-009
601
root  -3.55442 36.5948 -34.6218 0.576996 -4.89246 -5.84488
RightUpLeg  -9.35454 -24.8186 -23.06
RightLeg  17.0351 -3.20875 -1.29024
RightFoot  9.64154 -1.39381 7.8182
RightToes  -1.46215e-006 3.27826e-006 1.63871e-007
Spine  5.6936 5.76591 3.8332
Spine1  9.79177 9.42105 -12.1157
HEad  -28.7949 -53.7622 38.563
LeftShoulder1  2.48852 -4.81598 -23.6774
LeftArm  15.2645 23.5347 -30.89
LeftForeArm  30.0412 -77.5453 -96.1287
LeftHand  -0.0104461 4.63042 -2.40112
RightShoulder  -0.0188246 -4.88425 -7.36745
RightArm  4.50354 82.0669 28.5722
RightForeArm  168.895 71.6555 150.76
RightHand  -0.0180021 -6.14922 -1.97716
LeftUpLeg  -25.9827 19.073 7.36038
LeftLeg  49.1227 -3.42704 -3.77872
LeftFoot  -18.5225 0.0717071 -0.630163
LeftToes  1.24762e-006 1.46925e-008 1.29056e-009
602
root  -4.28864 36.4284 -34.6849 -0.029007 -8.10641 -4.62932
RightUpLeg  -10.3189 -29.8751 -23.6345
RightLeg  16.5137 -1.92951 -0.814516
RightFoot  14.1201 -2.75767 12.5917
RightToes  -1.46215e-006 3.27826e-006 1.63871e-007
Spine  6.48762 5.24884 4.47057
Spine1  8.2517 9.31575 -14.2528
HEad  -26.2711 -52.9809 35.6147
LeftShoulder1  2.5027 -4.84139 -23.7599
LeftArm  11.6694 17.8499 -31.4929
LeftForeArm  40.5451 -77.0524 -107.055
LeftHand  -0.0385227 6.2413 -0.561434
RightShoulder  -0.017434 -4.56727 -7.32176
RightArm  -1.07331 81.823 22.9836
RightForeArm  168.841 71.4542 151.071
RightHand  -0.0297789 -4.75184 -0.353323
LeftUpLeg  -24.629 20.5556 8.02222
LeftLeg  49.3429 -2.72677 -2.93928
LeftFoot  -19.1887 -0.0219213 -1.99138
LeftToes  1.24762e-006 1.46925e-008 1.29056e-009
603
root  -4.95397 36.2852 -34.6834 -0.850327 -11.8868 -2.9711
RightUpLeg  -12.7976 -33.0663 -23.8265
RightLeg  19.2164 1.70118 0.452808
RightFoot  12.8044 -3.49049 16.6687
RightToes  -1.46215e-006 3.27826e-006 1.63871e-007
Spine  6.21002 4.38379 5.81876
Spine1  7.42354 8.90879 -16.549
HEad  -22.2636 -51.8146 30.5835
LeftShoulder1  2.52096 -4.88091 -23.8451
LeftArm  5.24487 7.50646 -32.7518
LeftForeArm  45.4528 -76.5947 -112.577
LeftHand  -0.0328581 7.00983 0.351516
RightShoulder  -0.0153311 -4.19272 -6.70672
RightArm  -11.4279 81.8411 13.3578
RightForeArm  168.687 71.2182 151.421
RightHand  -0.0238461 -6.20142 -0.446527
LeftUpLeg  -22.7008 22.2974 8.25336
LeftLeg  49.3171 -1.77327 -1.74871
LeftFoot  -20.0749 -0.14896 -3.52191
LeftToes  1.24762e-006 1.46925e-008 1.29056e-009
604
root  -5.51354 36.146 -34.6148 -2.21927 -15.7691 -1.13368
RightUpLeg  -15.8151 -32.7224 -24.4809
RightLeg  23.8804 5.58014 2.48508
RightFoot  9.61682 -3.1616 17.3357
RightToes  -1.46215e-006 3.27826e-006 1.63871e-007
Spine  5.35524 3.26291 6.47406
Spine1  7.22723 7.69195 -16.8124
HEad  -15.5241 -49.5269 22.8363
LeftShoulder1  2.30439 -4.61544 -22.0596
LeftArm  -3.96449 -8.95721 -34.4159
LeftForeArm  46.8118 -76.5807 -112.896
LeftHand  0.000518956 7.10276 2.43879
RightShoulder  -0.0107226 -3.88163 -5.84724
RightArm  -26.0061 81.244 -0.37881
RightForeArm  167.794 70.6133 152.211
RightHand  -0.0292759 -5.26704 -3.92219
LeftUpLeg  -20.1015 24.3769 8.45245
LeftLeg  49.2525 -1.00369 -0.785004
LeftFoot  -20.7988 -0.241142 -4.42107
LeftToes  1.24762e-006 1.46925e-008 1.29056e-009
605
root  -5.95633 36.0203 -34.4987 -4.45291 -18.9639 0.276031
RightUpLeg  -17.1582 -31.7531 -25.4258
RightLeg  27.7072 7.65148 4.11648
RightFoot  8.39755 -2.77422 16.1861
RightToes  -1.46215e-006 3.27826e-006 1.63871e-007
Spine  6.04618 2.0173 5.32862
Spine1  5.71708 5.23035 -13.2688
HEad  -6.37328 -46.1177 12.4041
LeftShoulder1  1.75116 -3.88046 -17.0035
LeftArm  -15.9811 -31.3527 -33.1392
LeftForeArm  34.3601 -77.4887 -98.4291
LeftHand  0.0555074 8.65054 3.46884
RightShoulder  0.00909968 -3.35813 -4.60297
RightArm  -34.8543 76.2894 -6.72161
RightForeArm  170.298 69.7411 153.758
RightHand  -0.11308 -0.832074 -2.70013
LeftUpLeg  -16.5073 26.0296 9.44337
LeftLeg  49.2707 -0.453965 -0.0995063
LeftFoot  -21.3583 -0.31428 -5.04481
LeftToes  1.24762e-006 1.46925e-008 1.29056e-009
606
root  -6.23545 35.9087 -34.3145 -5.93504 -20.3721 0.667419
RightUpLeg  -16.993 -32.6159 -26.0201
RightLeg  30.0386 9.36174 5.5866
RightFoot  7.25189 -2.54479 15.7647
RightToes  -1.46215e-006 3.27826e-006 1.63871e-007
Spine  7.76721 0.789993 2.49071
Spine1  2.54501 1.93734 -5.81691
HEad  0.52641 -41.7714 2.85279
LeftShoulder1  1.00346 -2.73364 -8.69416
LeftArm  -38.076 -54.3708 -19.6732
LeftForeArm  14.0135 -77.1554 -70.8805
LeftHand  0.0914715 8.79839 3.99767
RightShoulder  0.103257 -2.18663 -0.822739
RightArm  -41.7096 65.4914 -4.01168
RightForeArm  174.846 69.0954 155.543
RightHand  -0.170117 -0.480798 -4.24856
LeftUpLeg  -14.2665 25.8341 10.4802
LeftLeg  49.8221 0.260339 0.802295
LeftFoot  -21.902 -0.386035 -5.59537
LeftToes  1.24762e-006 1.46925e-008 1.29056e-009
607
root  -6.42024 35.7837 -34.04 -5.57146 -21.0199 0.129501
RightUpLeg  -17.6657 -33.7544 -25.4504
RightLeg  31.8821 10.7469 6.90874
RightFoot  5.74409 -2.2976 15.4721
RightToes  -1.46215e-006 3.27826e-006 1.63871e-007
Spine  9.57594 -0.158532 -4.20968
Spine1  -1.6654 -1.98408 7.99584
HEad  3.27542 -37.0067 -4.66917
LeftShoulder1  0.387341 -0.549101 -1.38469
LeftArm  -81.9355 -61.8661 24.7018
LeftForeArm  7.43581 -72.9332 -41.7907
LeftHand  -0.143788 3.86352 9.66804
RightShoulder  0.298078 -0.673505 2.37844
RightArm  -50.783 54.4644 5.54271
RightForeArm  145.558 75.6464 139.051
RightHand  -0.437735 -0.708062 -10.8455
LeftUpLeg  -14.3005 25.1037 11.2467
LeftLeg  50.9066 0.88979 1.65672
LeftFoot  -22.5881 -0.452318 -5.96736
LeftToes  1.24762e-006 1.46925e-008 1.29056e-009
